<svg width="303" height="303" viewBox="0 0 303 303" fill="none" xmlns="http://www.w3.org/2000/svg">
<path d="M302 151.5C302 234.619 234.619 302 151.5 302C68.3811 302 1 234.619 1 151.5C1 68.3811 68.3811 1 151.5 1C234.619 1 302 68.3811 302 151.5Z" fill="#45C4B0"/>
<path d="M150 151H1V143.5L1.5 137.5L2.5 131L4.5 120L5.5 115.5L7 110.5L8 106.5L9.5 102.5L11 98L12.5 94L18 83L22 76L25 71L31 62L32.5 60L33.5 58.5L35.2188 56.7812L36.3425 55.4863L37 54.5L38.5 53L39.5 51.5L42.5 48.5L150 151Z" fill="#A0D94A"/>
<path d="M152.283 150.194L152 1.19475L159.5 1.1805L165.501 1.6691L172.003 2.65675L183.007 4.63584L187.508 5.62729L192.511 7.11779L196.513 8.11019L200.516 9.60258L205.019 11.094L209.022 12.5864L220.032 18.0655L227.04 22.0522L232.045 25.0427L241.057 31.0256L243.06 32.5218L244.562 33.5189L246.284 35.2344L247.581 36.3557L248.568 37.0113L250.071 38.5085L251.573 39.5056L254.579 42.4999L152.283 150.194Z" fill="#A0D94A"/>
<path d="M153 152H302V159.5L301.5 165.5L300.5 172L298.5 183L297.5 187.5L296 192.5L295 196.5L293.5 200.5L292 205L290.5 209L285 220L281 227L278 232L272 241L270.5 243L269.5 244.5L267.781 246.219L266.658 247.514L266 248.5L264.5 250L263.5 251.5L260.5 254.5L153 152Z" fill="#A0D94A"/>
<path d="M150.5 153V302H143L137 301.5L130.5 300.5L119.5 298.5L115 297.5L110 296L106 295L102 293.5L97.5 292L93.5 290.5L82.5 285L75.5 281L70.5 278L61.5 272L59.5 270.5L58 269.5L56.2812 267.781L54.9863 266.658L54 266L52.5 264.5L51 263.5L48 260.5L150.5 153Z" fill="#A0D94A"/>
<path d="M36.3425 55.4863L36 56L35.2188 56.7812M36.3425 55.4863L37 54.5L38.5 53M36.3425 55.4863L38.5 53M36.3425 55.4863L35.2188 56.7812M38.5 53L39.5 51.5L42.5 48.5L150 151H1V143.5L1.5 137.5L2.5 131L4.5 120L5.5 115.5L7 110.5L8 106.5L9.5 102.5L11 98L12.5 94L18 83L22 76L25 71L31 62L32.5 60L33.5 58.5L35.2188 56.7812M247.581 36.3557L247.066 36.0142L246.284 35.2344M247.581 36.3557L248.568 37.0113L250.071 38.5085M247.581 36.3557L250.071 38.5085M247.581 36.3557L246.284 35.2344M250.071 38.5085L251.573 39.5056L254.579 42.4999L152.283 150.194L152 1.19475L159.5 1.1805L165.501 1.6691L172.003 2.65675L183.007 4.63584L187.508 5.62729L192.511 7.11779L196.513 8.11019L200.516 9.60258L205.019 11.094L209.022 12.5864L220.032 18.0655L227.04 22.0522L232.045 25.0427L241.057 31.0256L243.06 32.5218L244.562 33.5189L246.284 35.2344M266.658 247.514L267 247L267.781 246.219M266.658 247.514L266 248.5L264.5 250M266.658 247.514L264.5 250M266.658 247.514L267.781 246.219M264.5 250L263.5 251.5L260.5 254.5L153 152H302V159.5L301.5 165.5L300.5 172L298.5 183L297.5 187.5L296 192.5L295 196.5L293.5 200.5L292 205L290.5 209L285 220L281 227L278 232L272 241L270.5 243L269.5 244.5L267.781 246.219M54.9863 266.658L55.5 267L56.2812 267.781M54.9863 266.658L54 266L52.5 264.5M54.9863 266.658L52.5 264.5M54.9863 266.658L56.2812 267.781M52.5 264.5L51 263.5L48 260.5L150.5 153V302H143L137 301.5L130.5 300.5L119.5 298.5L115 297.5L110 296L106 295L102 293.5L97.5 292L93.5 290.5L82.5 285L75.5 281L70.5 278L61.5 272L59.5 270.5L58 269.5L56.2812 267.781M302 151.5C302 234.619 234.619 302 151.5 302C68.3811 302 1 234.619 1 151.5C1 68.3811 68.3811 1 151.5 1C234.619 1 302 68.3811 302 151.5Z" stroke="#A0D94A"/>
</svg>
